<svg height="800" node-id="1" sillyvg="true" template-height="800" template-width="800" version="1.1" viewBox="0 0 800 800" width="800" xmlns="http://www.w3.org/2000/svg" xmlns:xlink="http://www.w3.org/1999/xlink"><defs node-id="116"><linearGradient gradientUnits="objectBoundingBox" id="SVGID_1_" node-id="7" spreadMethod="pad" x1="400.2561" x2="400.2561" y1="162.1879" y2="717.6795"><stop offset="0.00000009590021" stop-color="#f4f2fb"/><stop offset="1" stop-color="#e1eef5"/></linearGradient><linearGradient gradientUnits="objectBoundingBox" id="SVGID_2_" node-id="11" spreadMethod="pad" x1="405.6209" x2="503.8662" y1="678.774" y2="408.8473"><stop offset="0.3396" stop-color="#b0b9e1"/><stop offset="0.8657" stop-color="#eaf0f8"/></linearGradient><linearGradient gradientUnits="objectBoundingBox" id="SVGID_3_" node-id="16" spreadMethod="pad" x1="115.3379" x2="115.3379" y1="542.5742" y2="405.3996"><stop offset="0.2267" stop-color="#b7ace0"/><stop offset="0.7893" stop-color="#e8e7fa"/></linearGradient><linearGradient gradientUnits="objectBoundingBox" id="SVGID_4_" node-id="21" spreadMethod="pad" x1="115.3397" x2="115.3397" y1="420.6313" y2="571.7646"><stop offset="0" stop-color="#ecf1fb"/><stop offset="0.818" stop-color="#afb0e7"/></linearGradient><linearGradient gradientUnits="objectBoundingBox" id="SVGID_5_" node-id="26" spreadMethod="pad" x1="616.4667" x2="616.4667" y1="451.0522" y2="362.7277"><stop offset="0.2267" stop-color="#ccd4f4"/><stop offset="0.7893" stop-color="#ecf1fb"/></linearGradient><linearGradient gradientUnits="objectBoundingBox" id="SVGID_6_" node-id="31" spreadMethod="pad" x1="616.4679" x2="616.4679" y1="372.5352" y2="469.8475"><stop offset="0" stop-color="#ecf1fb"/><stop offset="1" stop-color="#a6a8e2"/></linearGradient><linearGradient gradientUnits="objectBoundingBox" id="SVGID_7_" node-id="35" spreadMethod="pad" x1="462.3848" x2="427.6305" y1="88.4456" y2="148.6418"><stop offset="0" stop-color="#ffdb80"/><stop offset="1" stop-color="#ffbb24"/></linearGradient><linearGradient gradientUnits="objectBoundingBox" id="SVGID_8_" node-id="39" spreadMethod="pad" x1="420.0476" x2="420.0476" y1="118.9118" y2="176.3658"><stop offset="0" stop-color="#f9fafe"/><stop offset="1" stop-color="#e5edf7"/></linearGradient><linearGradient gradientUnits="objectBoundingBox" id="SVGID_9_" node-id="44" spreadMethod="pad" x1="687.069" x2="687.069" y1="540.2924" y2="512.4641"><stop offset="0.2267" stop-color="#afb0e7"/><stop offset="1" stop-color="#ecf1fb"/></linearGradient><linearGradient gradientUnits="objectBoundingBox" id="SVGID_10_" node-id="48" spreadMethod="pad" x1="687.1181" x2="687.1181" y1="515.9778" y2="560.7737"><stop offset="0.00000009590021" stop-color="#dde1f6"/><stop offset="0.818" stop-color="#a6a8e2"/></linearGradient><linearGradient gradientUnits="objectBoundingBox" id="SVGID_11_" node-id="54" spreadMethod="pad" x1="391.5915" x2="391.5915" y1="448.7778" y2="456.3406"><stop offset="0" stop-color="#ffdb80"/><stop offset="1" stop-color="#ffbb24"/></linearGradient><linearGradient gradientUnits="objectBoundingBox" id="SVGID_12_" node-id="58" spreadMethod="pad" x1="391.5938" x2="391.5938" y1="451.4366" y2="410.6077"><stop offset="0" stop-color="#4f5c7c"/><stop offset="1" stop-color="#274168"/></linearGradient><linearGradient gradientUnits="objectBoundingBox" id="SVGID_13_" node-id="64" spreadMethod="pad" x1="2841.3923" x2="2841.3923" y1="448.7778" y2="456.3406"><stop offset="0" stop-color="#ffdb80"/><stop offset="1" stop-color="#ffbb24"/></linearGradient><linearGradient gradientUnits="objectBoundingBox" id="SVGID_14_" node-id="68" spreadMethod="pad" x1="2841.3945" x2="2841.3945" y1="451.4366" y2="410.6077"><stop offset="0" stop-color="#4f5c7c"/><stop offset="1" stop-color="#274168"/></linearGradient><linearGradient gradientUnits="objectBoundingBox" id="SVGID_15_" node-id="74" spreadMethod="pad" x1="238.7377" x2="238.7377" y1="379.1772" y2="617.233"><stop offset="0.1157" stop-color="#ced3f4"/><stop offset="0.8472" stop-color="#c6d5f4"/></linearGradient><linearGradient gradientUnits="objectBoundingBox" id="SVGID_16_" node-id="79" spreadMethod="pad" x1="552.1358" x2="552.1358" y1="379.1772" y2="617.233"><stop offset="0.1157" stop-color="#ced3f4"/><stop offset="0.8472" stop-color="#c6d5f4"/></linearGradient><linearGradient gradientUnits="objectBoundingBox" id="SVGID_17_" node-id="84" spreadMethod="pad" x1="395.4637" x2="395.4637" y1="379.1772" y2="617.233"><stop offset="0.1157" stop-color="#dee4ff"/><stop offset="0.8472" stop-color="#c6d5f4"/></linearGradient><linearGradient gradientUnits="objectBoundingBox" id="SVGID_18_" node-id="89" spreadMethod="pad" x1="395.1644" x2="395.1644" y1="379.147" y2="335.8857"><stop offset="0" stop-color="#445677"/><stop offset="1" stop-color="#293861"/></linearGradient><linearGradient gradientUnits="objectBoundingBox" id="SVGID_19_" node-id="93" spreadMethod="pad" x1="395.4637" x2="395.4637" y1="348.8818" y2="263.5564"><stop offset="0" stop-color="#c3d5fd"/><stop offset="1" stop-color="#1a90fc"/></linearGradient><linearGradient gradientUnits="objectBoundingBox" id="SVGID_20_" node-id="97" spreadMethod="pad" x1="394.2939" x2="394.2939" y1="293.4927" y2="222.8184"><stop offset="0" stop-color="#4f5c7c"/><stop offset="1" stop-color="#274168"/></linearGradient></defs><g node-id="320"><g node-id="335"><g node-id="336"><path d="M 483.50 203.50 L 478.60 207.10 L 473.20 210.40 L 467.40 213.50 L 461.00 216.40 L 454.50 218.80 L 440.50 222.90 L 432.90 224.40 L 422.80 226.00 L 412.20 226.90 L 401.20 227.30 L 390.20 227.10 L 379.00 226.20 L 367.60 224.60 L 359.20 223.10 L 342.40 218.80 L 334.10 216.10 L 325.90 213.00 L 317.90 209.50 L 310.00 205.60 L 295.80 197.70 L 288.80 194.30 L 281.50 191.20 L 265.90 186.00 L 249.60 182.30 L 232.60 179.90 L 215.50 179.00 L 206.90 179.10 L 198.30 179.50 L 189.80 180.40 L 181.50 181.70 L 173.40 183.30 L 165.30 185.40 L 157.50 187.90 L 150.00 190.70 L 142.90 194.00 L 135.90 197.80 L 129.40 201.90 L 123.30 206.50 L 117.70 211.50 L 113.50 215.80 L 109.60 220.50 L 106.10 225.40 L 102.90 230.60 L 100.10 236.20 L 97.50 242.50 L 95.50 248.70 L 94.00 254.90 L 93.00 260.90 L 92.20 273.30 L 92.80 285.40 L 93.90 293.50 L 95.40 301.40 L 100.70 321.10 L 113.80 362.40 L 117.00 376.40 L 117.90 383.40 L 118.30 390.10 L 118.10 396.50 L 117.50 401.30 L 116.50 406.00 L 114.90 410.60 L 112.90 415.20 L 109.70 421.00 L 101.50 434.00 L 79.30 465.40 L 71.70 476.80 L 62.20 492.60 L 57.80 500.70 L 53.90 509.10 L 50.60 517.60 L 47.80 526.20 L 46.10 532.80 L 44.90 539.50 L 44.10 546.30 L 43.80 553.30 L 43.90 560.10 L 44.70 567.20 L 46.10 574.30 L 48.10 581.70 L 52.40 593.20 L 55.40 599.10 L 62.90 611.60 L 69.20 620.20 L 75.40 627.90 L 81.60 634.60 L 87.60 640.50 L 94.20 646.20 L 100.70 651.10 L 107.10 655.40 L 113.40 659.00 L 120.10 662.20 L 126.60 665.00 L 133.10 667.20 L 139.50 668.90 L 148.30 670.70 L 156.80 671.90 L 165.20 672.40 L 173.60 672.50 L 189.70 671.40 L 201.40 669.90 L 232.20 664.00 L 238.50 663.10 L 244.90 662.70 L 251.40 662.70 L 258.00 663.20 L 266.80 664.60 L 275.90 666.50 L 285.20 669.10 L 303.80 675.40 L 358.00 697.50 L 373.50 703.40 L 383.90 706.90 L 394.40 710.10 L 405.00 712.80 L 421.20 715.90 L 429.40 716.90 L 437.60 717.50 L 445.80 717.70 L 454.20 717.40 L 462.60 716.50 L 471.10 715.10 L 479.50 713.30 L 488.00 710.70 L 496.60 707.40 L 505.50 703.50 L 512.30 700.00 L 519.10 695.90 L 526.20 691.30 L 533.40 686.00 L 546.10 676.10 L 551.40 672.60 L 556.80 669.70 L 562.20 667.30 L 573.50 663.60 L 585.10 661.50 L 592.90 660.80 L 600.80 660.50 L 620.90 661.30 L 656.60 664.30 L 664.50 664.60 L 679.50 664.20 L 686.90 663.40 L 694.00 662.00 L 701.00 660.00 L 706.00 658.00 L 710.90 655.60 L 715.70 652.60 L 720.40 649.20 L 724.70 645.30 L 729.00 640.80 L 733.10 635.60 L 737.20 629.50 L 740.80 623.40 L 744.30 616.30 L 747.70 608.10 L 750.90 598.80 L 753.20 591.00 L 754.80 583.70 L 755.90 576.70 L 756.50 570.10 L 756.70 563.30 L 756.50 556.80 L 755.90 550.60 L 754.90 544.60 L 753.00 536.70 L 750.70 529.10 L 747.90 521.90 L 744.60 514.80 L 737.20 501.30 L 731.10 491.60 L 712.60 464.30 L 707.00 455.40 L 702.20 446.70 L 699.50 440.70 L 697.30 434.80 L 695.60 428.90 L 694.70 424.40 L 694.30 419.90 L 694.20 415.20 L 694.60 410.50 L 695.40 405.90 L 696.70 401.10 L 698.50 396.00 L 705.50 381.50 L 709.60 372.20 L 713.10 362.90 L 716.20 353.50 L 718.90 343.90 L 721.20 334.40 L 722.90 324.90 L 724.30 315.50 L 725.20 306.00 L 725.70 296.70 L 725.70 287.60 L 725.40 278.60 L 724.60 269.60 L 723.40 260.80 L 721.90 252.40 L 719.90 244.20 L 717.50 236.10 L 714.80 228.40 L 711.70 221.00 L 708.20 214.10 L 704.30 207.30 L 700.00 201.00 L 695.40 195.10 L 690.50 189.70 L 686.20 185.70 L 681.50 182.10 L 676.20 178.60 L 670.50 175.50 L 664.50 172.70 L 658.20 170.30 L 651.50 168.10 L 644.30 166.30 L 629.70 163.60 L 613.80 162.30 L 603.10 162.20 L 592.10 162.70 L 580.70 163.90 L 569.50 165.60 L 558.20 168.00 L 546.80 171.10 L 530.10 176.90 L 513.80 184.30 L 505.90 188.50 L 498.20 193.10 L 490.80 198.10 L 483.50 203.50 Z" fill="url(#SVGID_1_)" fill-rule="nonzero" group-id="1,16,17" node-id="244" stroke="none" target-height="555.5" target-width="712.9" target-x="43.8" target-y="162.2"/><path d="M 236.50 617.20 L 271.30 565.90 L 219.80 526.90 L 280.90 486.30 L 716.70 486.30 L 620.40 609.50 L 561.60 566.50 L 512.10 558.30 L 450.20 608.10 L 361.80 584.00 L 307.00 609.50 Z" fill="url(#SVGID_2_)" fill-rule="nonzero" group-id="1,16,17" node-id="246" stroke="none" target-height="130.90002" target-width="496.90002" target-x="219.8" target-y="486.3"/><g node-id="338"><path d="M 116.10 405.60 L 115.80 405.40 L 115.60 405.70 L 112.60 412.60 L 104.20 435.50 L 97.50 456.80 L 94.30 468.60 L 91.50 480.60 L 87.90 500.90 L 86.40 518.50 L 86.70 523.40 L 87.40 526.40 L 89.90 531.80 L 93.60 536.00 L 95.90 537.70 L 98.90 539.30 L 102.50 540.80 L 106.30 541.70 L 110.90 542.30 L 116.60 542.60 L 121.00 542.30 L 127.80 540.90 L 130.50 539.80 L 133.90 537.90 L 136.60 535.70 L 138.70 533.30 L 140.50 530.50 L 142.80 524.80 L 143.80 520.30 L 144.20 516.30 L 144.10 505.00 L 142.60 493.50 L 140.90 484.40 L 138.50 474.60 L 133.00 454.80 L 127.10 436.20 L 116.10 405.60 Z" fill="url(#SVGID_3_)" fill-rule="nonzero" group-id="1,16,17,19" node-id="250" stroke="none" target-height="137.19998" target-width="57.799995" target-x="86.4" target-y="405.4"/><g node-id="344"><path d="M 115.30 571.80 L 114.60 571.50 L 114.30 570.80 L 114.30 421.60 L 114.60 420.90 L 115.30 420.60 L 116.00 420.90 L 116.30 421.60 L 116.30 570.80 L 116.00 571.50 L 115.30 571.80 Z" fill="url(#SVGID_4_)" fill-rule="nonzero" group-id="1,16,17,19,25" node-id="254" stroke="none" target-height="151.19998" target-width="2" target-x="114.3" target-y="420.6"/></g></g><g node-id="339"><path d="M 617.00 362.90 L 616.60 362.90 L 614.70 367.40 L 611.30 376.40 L 607.10 388.80 L 602.90 403.40 L 601.10 411.20 L 598.50 426.80 L 597.90 434.30 L 597.90 437.80 L 598.40 440.30 L 599.30 442.70 L 601.00 445.20 L 602.40 446.70 L 606.80 449.40 L 609.50 450.30 L 612.90 450.80 L 617.30 451.10 L 620.90 450.80 L 623.90 450.20 L 626.20 449.30 L 630.20 446.60 L 631.50 445.10 L 633.10 442.40 L 634.20 439.60 L 635.10 434.10 L 635.10 429.90 L 634.70 424.30 L 632.20 410.50 L 630.30 403.00 L 626.00 388.40 L 617.00 362.90 Z" fill="url(#SVGID_5_)" fill-rule="nonzero" group-id="1,16,17,20" node-id="260" stroke="none" target-height="88.20001" target-width="37.19995" target-x="597.9" target-y="362.9"/><g node-id="345"><path d="M 616.50 469.90 L 615.80 469.20 L 616.00 372.70 L 616.50 372.60 L 617.10 373.20 L 617.10 469.20 L 616.50 469.90 Z" fill="url(#SVGID_6_)" fill-rule="nonzero" group-id="1,16,17,20,26" node-id="264" stroke="none" target-height="97.29999" target-width="1.2999878" target-x="615.8" target-y="372.6"/></g></g><path d="M 479.80 118.50 L 479.40 123.30 L 478.50 127.80 L 477.00 132.10 L 475.00 136.10 L 472.50 139.80 L 469.60 143.10 L 466.20 146.10 L 462.60 148.50 L 458.50 150.60 L 454.30 152.00 L 449.80 153.00 L 445.00 153.30 L 440.20 153.00 L 435.70 152.00 L 431.50 150.60 L 427.50 148.50 L 423.80 146.10 L 420.40 143.10 L 417.50 139.80 L 415.00 136.10 L 413.00 132.10 L 411.50 127.80 L 410.60 123.30 L 410.30 118.50 L 410.60 113.80 L 411.50 109.30 L 413.00 105.00 L 415.00 101.00 L 417.50 97.30 L 420.40 94.00 L 423.80 91.00 L 427.50 88.50 L 431.50 86.50 L 435.70 85.00 L 440.20 84.10 L 445.00 83.80 L 449.80 84.10 L 454.30 85.00 L 458.50 86.50 L 462.60 88.50 L 466.20 91.00 L 469.60 94.00 L 472.50 97.30 L 475.00 101.00 L 477.00 105.00 L 478.50 109.30 L 479.40 113.80 L 479.80 118.50 Z" fill="url(#SVGID_7_)" fill-rule="nonzero" group-id="1,16,17" node-id="268" stroke="none" target-height="69.5" target-width="69.5" target-x="410.3" target-y="83.8"/><path d="M 464.80 137.50 L 430.20 137.50 L 429.20 134.00 L 427.70 130.90 L 425.80 128.00 L 423.40 125.40 L 420.80 123.20 L 417.70 121.40 L 414.50 120.00 L 411.00 119.20 L 407.30 118.90 L 403.50 119.20 L 400.10 120.00 L 396.80 121.40 L 393.80 123.20 L 391.10 125.40 L 388.80 128.00 L 386.80 130.90 L 385.40 134.00 L 384.40 137.50 L 375.30 137.50 L 371.80 137.80 L 368.50 138.70 L 365.50 140.10 L 362.80 142.10 L 360.40 144.40 L 358.50 147.10 L 357.10 150.10 L 356.20 153.40 L 355.90 156.90 L 356.20 160.50 L 357.10 163.70 L 358.50 166.70 L 360.40 169.50 L 362.80 171.80 L 365.50 173.70 L 368.50 175.20 L 371.80 176.00 L 375.30 176.40 L 464.80 176.40 L 468.30 176.00 L 471.60 175.20 L 474.60 173.70 L 477.30 171.80 L 479.60 169.50 L 481.60 166.70 L 483.00 163.70 L 483.90 160.50 L 484.20 156.90 L 483.90 153.40 L 483.00 150.10 L 481.60 147.10 L 479.60 144.40 L 477.30 142.10 L 474.60 140.10 L 471.60 138.70 L 468.30 137.80 L 464.80 137.50 Z" fill="url(#SVGID_8_)" fill-rule="nonzero" group-id="1,16,17" node-id="270" stroke="none" target-height="57.499992" target-width="128.30002" target-x="355.9" target-y="118.9"/><g node-id="340"><path d="M 701.00 526.40 L 700.70 528.90 L 700.10 531.20 L 699.10 533.40 L 697.70 535.40 L 696.00 537.00 L 691.90 539.40 L 689.60 540.10 L 687.10 540.30 L 684.50 540.10 L 682.20 539.40 L 680.00 538.40 L 678.10 537.00 L 676.40 535.40 L 675.10 533.40 L 674.00 531.20 L 673.40 528.90 L 673.20 526.40 L 673.40 523.80 L 674.00 521.50 L 676.40 517.40 L 680.00 514.40 L 682.20 513.30 L 684.50 512.70 L 687.10 512.50 L 689.60 512.70 L 691.90 513.30 L 694.10 514.40 L 696.00 515.80 L 699.10 519.40 L 700.10 521.50 L 700.70 523.80 L 701.00 526.40 Z" fill="url(#SVGID_9_)" fill-rule="nonzero" group-id="1,16,17,21" node-id="274" stroke="none" target-height="27.799988" target-width="27.799988" target-x="673.2" target-y="512.5"/><path d="M 687.10 560.80 L 686.70 560.30 L 686.80 516.10 L 687.40 516.10 L 687.60 516.40 L 687.60 560.30 L 687.10 560.80 Z" fill="url(#SVGID_10_)" fill-rule="nonzero" group-id="1,16,17,21" node-id="276" stroke="none" target-height="44.700012" target-width="0.8999634" target-x="686.7" target-y="516.1"/></g></g><g node-id="337"><g node-id="341"><path d="M 395.40 450.50 L 395.80 451.40 L 396.40 455.70 L 392.30 456.30 L 386.90 455.90 L 387.10 452.50 L 388.90 448.80 L 395.20 450.10 L 395.40 450.50 Z" fill="url(#SVGID_11_)" fill-rule="nonzero" group-id="1,16,18,22" node-id="284" stroke="none" target-height="7.5" target-width="9.5" target-x="386.9" target-y="448.8"/><path d="M 385.40 451.40 L 395.80 451.40 L 397.80 410.60 L 385.40 410.60 Z" fill="url(#SVGID_12_)" fill-rule="nonzero" group-id="1,16,18,22" node-id="286" stroke="none" target-height="40.799988" target-width="12.399994" target-x="385.4" target-y="410.6"/><path d="M 386.60 455.60 L 392.50 456.10 L 396.40 455.60 L 396.50 457.60 L 391.30 458.20 L 387.30 457.90 L 386.60 455.60 Z" fill="#d4e4fe" fill-rule="nonzero" group-id="1,16,18,22" node-id="288" stroke="none" target-height="2.600006" target-width="9.899994" target-x="386.6" target-y="455.6"/></g><g node-id="342"><path d="M 400.10 450.50 L 399.70 451.40 L 399.10 455.70 L 403.20 456.30 L 408.60 455.90 L 408.40 452.50 L 406.60 448.80 L 400.30 450.10 L 400.10 450.50 Z" fill="url(#SVGID_13_)" fill-rule="nonzero" group-id="1,16,18,23" node-id="293" stroke="none" target-height="7.5" target-width="9.5" target-x="399.1" target-y="448.8"/><path d="M 410.10 451.40 L 399.70 451.40 L 397.80 410.60 L 410.10 410.60 Z" fill="url(#SVGID_14_)" fill-rule="nonzero" group-id="1,16,18,23" node-id="295" stroke="none" target-height="40.799988" target-width="12.300018" target-x="397.8" target-y="410.6"/><path d="M 408.90 455.60 L 403.00 456.10 L 399.10 455.60 L 399.00 457.60 L 401.90 458.10 L 404.50 458.10 L 408.30 457.60 L 408.90 455.60 Z" fill="#d4e4fe" fill-rule="nonzero" group-id="1,16,18,23" node-id="297" stroke="none" target-height="2.5" target-width="9.899994" target-x="399" target-y="455.6"/></g><path d="M 325.40 526.90 L 306.70 526.90 L 306.70 371.40 L 227.90 371.40 L 216.20 379.20 L 175.30 522.80 L 175.30 566.50 L 247.90 566.50 L 295.00 617.20 L 306.70 609.50 L 306.70 573.10 L 313.80 574.30 L 325.40 566.50 L 325.40 526.90 Z M 247.90 526.90 L 219.50 526.90 L 247.90 430.20 L 247.90 526.90 Z" fill="#afb0e7" fill-rule="nonzero" group-id="1,16,18" node-id="300" stroke="none" target-height="245.80002" target-width="150.09999" target-x="175.3" target-y="371.4"/><path d="M 313.80 534.70 L 295.00 534.70 L 295.00 379.20 L 216.20 379.20 L 163.70 530.50 L 163.70 574.30 L 236.20 574.30 L 236.20 617.20 L 295.00 617.20 L 295.00 574.30 L 313.80 574.30 L 313.80 534.70 Z M 236.20 534.70 L 207.90 534.70 L 236.20 438.00 L 236.20 534.70 Z" fill="url(#SVGID_15_)" fill-rule="nonzero" group-id="1,16,18" node-id="302" stroke="none" target-height="238" target-width="150.09999" target-x="163.7" target-y="379.2"/><path d="M 638.80 526.90 L 620.10 526.90 L 620.10 371.40 L 541.30 371.40 L 529.60 379.20 L 488.70 522.80 L 488.70 566.50 L 561.30 566.50 L 608.40 617.20 L 620.10 609.50 L 620.10 573.10 L 627.20 574.30 L 638.80 566.50 L 638.80 526.90 Z M 561.30 526.90 L 532.90 526.90 L 561.30 430.20 L 561.30 526.90 Z" fill="#afb0e7" fill-rule="nonzero" group-id="1,16,18" node-id="304" stroke="none" target-height="245.80002" target-width="150.09998" target-x="488.7" target-y="371.4"/><path d="M 627.20 534.70 L 608.40 534.70 L 608.40 379.20 L 529.60 379.20 L 477.10 530.50 L 477.10 574.30 L 549.60 574.30 L 549.60 617.20 L 608.40 617.20 L 608.40 574.30 L 627.20 574.30 L 627.20 534.70 Z M 549.60 534.70 L 521.30 534.70 L 549.60 438.00 L 549.60 534.70 Z" fill="url(#SVGID_16_)" fill-rule="nonzero" group-id="1,16,18" node-id="306" stroke="none" target-height="238" target-width="150.1" target-x="477.1" target-y="379.2"/><path d="M 417.60 371.40 L 384.90 371.40 L 375.20 372.20 L 366.10 374.30 L 360.30 376.50 L 354.80 379.20 L 349.80 382.40 L 345.00 386.10 L 340.70 390.20 L 336.90 394.80 L 333.50 399.70 L 330.70 404.90 L 328.40 410.40 L 326.20 419.20 L 325.40 428.50 L 325.40 560.20 L 325.60 564.90 L 327.10 573.90 L 328.40 578.20 L 330.70 583.80 L 333.50 589.00 L 336.90 593.90 L 340.70 598.40 L 345.00 602.50 L 349.80 606.20 L 354.80 609.40 L 360.30 612.10 L 366.10 614.30 L 370.50 615.60 L 379.90 617.00 L 417.60 617.20 L 422.60 617.00 L 432.00 615.60 L 436.40 614.30 L 442.20 612.10 L 447.70 609.40 L 452.70 606.20 L 457.50 602.50 L 461.80 598.40 L 465.60 593.90 L 469.00 589.00 L 471.80 583.80 L 474.10 578.20 L 476.30 569.50 L 477.10 560.20 L 477.10 428.50 L 476.90 423.70 L 475.40 414.70 L 474.10 410.40 L 471.80 404.90 L 469.00 399.70 L 465.60 394.80 L 461.80 390.20 L 457.50 386.10 L 452.70 382.40 L 447.70 379.20 L 442.20 376.50 L 436.40 374.30 L 427.30 372.20 L 417.60 371.40 Z M 414.00 561.10 L 413.20 565.30 L 412.30 567.20 L 409.50 570.40 L 405.70 572.60 L 401.30 573.30 L 396.80 572.60 L 393.00 570.40 L 390.20 567.20 L 389.30 565.30 L 388.50 561.10 L 388.50 424.10 L 389.30 419.90 L 390.20 418.00 L 393.00 414.80 L 396.80 412.60 L 401.30 411.90 L 405.70 412.60 L 409.50 414.80 L 412.30 418.00 L 413.20 419.90 L 414.00 424.10 L 414.00 561.10 Z" fill="#afb0e7" fill-rule="nonzero" group-id="1,16,18" node-id="308" stroke="none" target-height="245.80002" target-width="151.70001" target-x="325.4" target-y="371.4"/><path d="M 410.70 379.20 L 380.30 379.20 L 374.20 379.50 L 368.40 380.50 L 362.80 382.00 L 357.40 384.10 L 352.40 386.70 L 347.60 389.80 L 343.20 393.40 L 339.20 397.40 L 335.70 401.80 L 332.60 406.50 L 329.90 411.60 L 327.80 417.00 L 326.30 422.50 L 325.30 428.30 L 325.00 434.40 L 325.00 562.00 L 325.30 568.10 L 326.30 573.90 L 327.80 579.50 L 329.90 584.80 L 332.60 589.90 L 335.70 594.60 L 339.20 599.00 L 343.20 603.00 L 347.60 606.60 L 352.40 609.70 L 357.40 612.30 L 362.80 614.40 L 368.40 616.00 L 374.20 616.90 L 380.30 617.20 L 410.70 617.20 L 416.80 616.90 L 422.60 616.00 L 428.10 614.40 L 433.50 612.30 L 438.60 609.70 L 443.30 606.60 L 447.70 603.00 L 451.70 599.00 L 455.30 594.60 L 458.40 589.90 L 461.00 584.80 L 463.10 579.50 L 464.60 573.90 L 465.60 568.10 L 465.90 562.00 L 465.90 434.40 L 465.60 428.30 L 464.60 422.50 L 463.10 417.00 L 461.00 411.60 L 458.40 406.50 L 455.30 401.80 L 451.70 397.40 L 447.70 393.40 L 443.30 389.80 L 438.60 386.70 L 433.50 384.10 L 428.10 382.00 L 422.60 380.50 L 416.80 379.50 L 410.70 379.20 Z M 407.40 562.80 L 406.60 567.00 L 405.70 568.80 L 403.10 571.90 L 399.60 574.00 L 395.50 574.70 L 391.30 574.00 L 387.80 571.90 L 385.20 568.80 L 384.30 567.00 L 383.60 562.80 L 383.60 430.20 L 384.30 426.10 L 386.40 422.60 L 389.50 420.00 L 391.30 419.10 L 395.50 418.40 L 399.60 419.10 L 403.10 421.20 L 405.70 424.30 L 406.60 426.10 L 407.40 430.20 L 407.40 562.80 Z" fill="url(#SVGID_17_)" fill-rule="nonzero" group-id="1,16,18" node-id="310" stroke="none" target-height="238" target-width="140.9" target-x="325" target-y="379.2"/><g node-id="343"><path d="M 365.80 337.80 L 363.70 344.40 L 362.20 350.90 L 361.50 358.20 L 361.60 361.90 L 362.10 365.20 L 363.10 368.10 L 364.20 370.50 L 367.20 374.20 L 369.60 376.10 L 372.40 377.50 L 375.40 378.40 L 378.50 378.90 L 385.20 378.80 L 390.30 377.90 L 395.20 376.40 L 399.40 378.20 L 401.90 378.80 L 405.80 379.10 L 410.00 378.90 L 414.10 378.10 L 418.00 376.80 L 420.50 375.60 L 424.50 372.40 L 426.10 370.50 L 427.30 368.30 L 428.10 365.80 L 428.70 362.30 L 428.70 354.20 L 428.10 350.10 L 427.10 346.10 L 425.80 342.70 L 423.40 339.00 L 422.10 337.80 L 420.40 337.10 L 417.00 336.40 L 408.20 335.90 L 386.00 336.40 L 365.80 337.80 Z" fill="url(#SVGID_18_)" fill-rule="nonzero" group-id="1,16,18,24" node-id="314" stroke="none" target-height="43.200012" target-width="67.20001" target-x="361.5" target-y="335.9"/><path d="M 431.20 280.60 L 430.10 277.10 L 427.40 272.00 L 424.60 268.50 L 423.00 267.00 L 421.30 265.90 L 419.50 265.30 L 417.40 265.10 L 415.00 265.60 L 405.10 266.30 L 404.10 268.40 L 402.10 270.80 L 400.50 271.80 L 398.70 272.40 L 396.20 272.50 L 394.60 272.20 L 392.20 270.90 L 390.90 269.50 L 390.10 268.00 L 389.00 263.90 L 387.00 263.70 L 381.90 263.60 L 375.50 264.40 L 372.40 265.40 L 368.70 267.30 L 365.20 270.00 L 361.90 274.60 L 359.70 280.60 L 356.90 293.20 L 355.80 299.90 L 355.20 306.50 L 355.30 314.90 L 355.80 318.60 L 356.80 322.20 L 358.20 325.20 L 360.00 327.80 L 364.20 331.90 L 362.10 345.00 L 362.40 346.50 L 363.20 347.70 L 364.30 348.60 L 365.70 348.90 L 424.30 348.90 L 425.70 348.60 L 426.90 347.70 L 427.60 346.50 L 427.90 345.00 L 425.80 332.60 L 430.90 327.80 L 432.70 325.20 L 434.10 322.20 L 435.10 318.60 L 435.60 314.90 L 435.70 306.50 L 435.10 299.90 L 434.00 293.30 L 431.20 280.60 Z" fill="url(#SVGID_19_)" fill-rule="nonzero" group-id="1,16,18,24" node-id="316" stroke="none" target-height="85.29999" target-width="80.5" target-x="355.2" target-y="263.6"/><path d="M 423.60 258.20 L 423.60 255.20 L 423.00 253.30 L 421.60 250.60 L 419.40 247.80 L 417.60 246.10 L 413.20 243.00 L 412.90 239.90 L 412.30 237.00 L 411.40 234.40 L 408.50 229.60 L 404.80 225.90 L 400.80 223.60 L 398.60 223.00 L 396.60 222.80 L 391.20 223.20 L 388.10 223.90 L 385.30 224.90 L 382.80 226.30 L 380.60 228.10 L 378.80 230.40 L 377.30 233.20 L 376.20 236.50 L 375.30 242.40 L 371.80 244.70 L 368.30 248.50 L 366.00 253.00 L 365.50 257.40 L 362.40 259.80 L 360.70 261.70 L 358.20 265.80 L 357.20 269.90 L 357.20 272.00 L 357.60 274.30 L 358.50 276.90 L 359.90 279.30 L 361.90 281.90 L 364.90 284.80 L 373.40 290.80 L 374.80 291.40 L 378.90 292.70 L 385.40 293.50 L 389.40 293.40 L 396.20 292.30 L 398.30 291.50 L 401.60 289.20 L 403.10 288.70 L 404.50 288.50 L 411.00 289.50 L 413.20 289.40 L 418.80 288.30 L 421.50 287.20 L 424.00 285.70 L 426.20 283.70 L 428.50 280.90 L 430.30 277.10 L 431.20 274.10 L 431.40 271.40 L 431.20 268.90 L 430.60 266.60 L 429.50 264.50 L 426.10 260.30 L 423.60 258.20 Z" fill="url(#SVGID_20_)" fill-rule="nonzero" group-id="1,16,18,24" node-id="318" stroke="none" target-height="70.7" target-width="74.19998" target-x="357.2" target-y="222.8"/></g></g></g></g></svg>