<?xml version="1.0" standalone="no"?><!DOCTYPE svg PUBLIC "-//W3C//DTD SVG 1.1//EN" "http://www.w3.org/Graphics/SVG/1.1/DTD/svg11.dtd"><svg height="800" node-id="1" sillyvg="true" template-height="800" template-width="800" version="1.1" viewBox="0 0 800 800" width="800" xmlns="http://www.w3.org/2000/svg" xmlns:xlink="http://www.w3.org/1999/xlink"><defs node-id="220"><linearGradient gradientUnits="objectBoundingBox" id="SVGID_1_" node-id="21" spreadMethod="pad" x1="402.1169" x2="402.1169" y1="161.9436" y2="717.4352"><stop offset="0.00000009590021" stop-color="#f4f2fb"></stop><stop offset="1" stop-color="#e1eef5"></stop></linearGradient><linearGradient gradientUnits="objectBoundingBox" id="SVGID_2_" node-id="26" spreadMethod="pad" x1="116.3705" x2="116.3705" y1="542.33" y2="405.1554"><stop offset="0.2267" stop-color="#b7ace0"></stop><stop offset="0.7893" stop-color="#e8e7fa"></stop></linearGradient><linearGradient gradientUnits="objectBoundingBox" id="SVGID_3_" node-id="31" spreadMethod="pad" x1="116.3724" x2="116.3724" y1="420.3871" y2="571.5204"><stop offset="0" stop-color="#ecf1fb"></stop><stop offset="0.818" stop-color="#afb0e7"></stop></linearGradient><linearGradient gradientUnits="objectBoundingBox" id="SVGID_4_" node-id="36" spreadMethod="pad" x1="617.4993" x2="617.4993" y1="450.808" y2="362.4835"><stop offset="0.2267" stop-color="#ccd4f4"></stop><stop offset="0.7893" stop-color="#ecf1fb"></stop></linearGradient><linearGradient gradientUnits="objectBoundingBox" id="SVGID_5_" node-id="41" spreadMethod="pad" x1="617.5005" x2="617.5005" y1="372.291" y2="469.6033"><stop offset="0" stop-color="#ecf1fb"></stop><stop offset="1" stop-color="#a6a8e2"></stop></linearGradient><linearGradient gradientUnits="objectBoundingBox" id="SVGID_6_" node-id="45" spreadMethod="pad" x1="463.4174" x2="428.6631" y1="88.2014" y2="148.3975"><stop offset="0" stop-color="#ffdb80"></stop><stop offset="1" stop-color="#ffbb24"></stop></linearGradient><linearGradient gradientUnits="objectBoundingBox" id="SVGID_7_" node-id="49" spreadMethod="pad" x1="421.0802" x2="421.0802" y1="118.6676" y2="176.1215"><stop offset="0" stop-color="#f9fafe"></stop><stop offset="1" stop-color="#e5edf7"></stop></linearGradient><linearGradient gradientUnits="objectBoundingBox" id="SVGID_8_" node-id="54" spreadMethod="pad" x1="688.1016" x2="688.1016" y1="540.0481" y2="512.2199"><stop offset="0.2267" stop-color="#afb0e7"></stop><stop offset="1" stop-color="#ecf1fb"></stop></linearGradient><linearGradient gradientUnits="objectBoundingBox" id="SVGID_9_" node-id="58" spreadMethod="pad" x1="688.1507" x2="688.1507" y1="515.7336" y2="560.5295"><stop offset="0.00000009590021" stop-color="#dde1f6"></stop><stop offset="0.818" stop-color="#a6a8e2"></stop></linearGradient><linearGradient gradientUnits="objectBoundingBox" id="SVGID_10_" node-id="62" spreadMethod="pad" x1="430.5729" x2="523.3898" y1="594.429" y2="433.6653"><stop offset="0.3396" stop-color="#b0b9e1"></stop><stop offset="0.8657" stop-color="#eaf0f8"></stop></linearGradient><linearGradient gradientUnits="objectBoundingBox" id="SVGID_11_" node-id="66" spreadMethod="pad" x1="461.8405" x2="532.5019" y1="667.9717" y2="545.5826"><stop offset="0.3396" stop-color="#b0b9e1"></stop><stop offset="0.8657" stop-color="#e6eff7"></stop></linearGradient><linearGradient gradientUnits="objectBoundingBox" id="SVGID_12_" node-id="70" spreadMethod="pad" x1="607.5466" x2="669.3995" y1="553.9441" y2="446.8115"><stop offset="0.3396" stop-color="#b0b9e1"></stop><stop offset="0.8657" stop-color="#eaf0f8"></stop></linearGradient><linearGradient gradientUnits="objectBoundingBox" id="SVGID_13_" node-id="76" spreadMethod="pad" x1="319.0845" x2="406.7936" y1="212.605" y2="364.5217"><stop offset="0" stop-color="#c8cbf2"></stop><stop offset="1" stop-color="#afb0e7"></stop></linearGradient><linearGradient gradientUnits="objectBoundingBox" id="SVGID_14_" node-id="81" spreadMethod="pad" x1="424.711" x2="289.0521" y1="360.3372" y2="224.6783"><stop offset="0.15" stop-color="#acc5ea"></stop><stop offset="1" stop-color="#d9e1fd"></stop></linearGradient><linearGradient gradientUnits="objectBoundingBox" id="SVGID_15_" node-id="85" spreadMethod="pad" x1="287.3497" x2="437.558" y1="364.4869" y2="624.6554"><stop offset="0" stop-color="#c8cbf2"></stop><stop offset="1" stop-color="#afb0e7"></stop></linearGradient><linearGradient gradientUnits="objectBoundingBox" id="SVGID_16_" node-id="89" spreadMethod="pad" x1="474.9959" x2="237.1018" y1="613.5182" y2="375.6241"><stop offset="0.15" stop-color="#acc5ea"></stop><stop offset="1" stop-color="#d9e1fd"></stop></linearGradient><linearGradient gradientUnits="objectBoundingBox" id="SVGID_17_" node-id="93" spreadMethod="pad" x1="229.793" x2="229.793" y1="575.8963" y2="413.2462"><stop offset="0" stop-color="#c8cbf2"></stop><stop offset="1" stop-color="#afb0e7"></stop></linearGradient><linearGradient gradientUnits="objectBoundingBox" id="SVGID_18_" node-id="97" spreadMethod="pad" x1="224.4856" x2="224.4856" y1="413.2462" y2="575.8963"><stop offset="0.15" stop-color="#e4ebf8"></stop><stop offset="1" stop-color="#f2f5fc"></stop></linearGradient><linearGradient gradientUnits="objectBoundingBox" id="SVGID_19_" node-id="101" spreadMethod="pad" x1="494.469" x2="494.469" y1="575.8442" y2="413.1942"><stop offset="0" stop-color="#c8cbf2"></stop><stop offset="1" stop-color="#afb0e7"></stop></linearGradient><linearGradient gradientUnits="objectBoundingBox" id="SVGID_20_" node-id="105" spreadMethod="pad" x1="489.2832" x2="489.2832" y1="413.2462" y2="575.8963"><stop offset="0.15" stop-color="#dae4f6"></stop><stop offset="1" stop-color="#fdfdfe"></stop></linearGradient><linearGradient gradientUnits="objectBoundingBox" id="SVGID_21_" node-id="109" spreadMethod="pad" x1="285.1342" x2="437.4261" y1="239.5693" y2="503.3466"><stop offset="0" stop-color="#c8cbf2"></stop><stop offset="1" stop-color="#afb0e7"></stop></linearGradient><linearGradient gradientUnits="objectBoundingBox" id="SVGID_22_" node-id="113" spreadMethod="pad" x1="283.5012" x2="425.8283" y1="249.711" y2="496.2288"><stop offset="0.1157" stop-color="#dee4ff"></stop><stop offset="0.8472" stop-color="#bacbee"></stop></linearGradient><linearGradient gradientUnits="objectBoundingBox" id="SVGID_23_" node-id="117" spreadMethod="pad" x1="236.5914" x2="236.5914" y1="448.7487" y2="304.9979"><stop offset="0" stop-color="#c8cbf2"></stop><stop offset="1" stop-color="#afb0e7"></stop></linearGradient><linearGradient gradientUnits="objectBoundingBox" id="SVGID_24_" node-id="121" spreadMethod="pad" x1="224.4856" x2="224.4856" y1="447.9078" y2="304.9979"><stop offset="0.15" stop-color="#dae4f6"></stop><stop offset="1" stop-color="#ffffff"></stop></linearGradient><linearGradient gradientUnits="objectBoundingBox" id="SVGID_25_" node-id="125" spreadMethod="pad" x1="500.1968" x2="500.1968" y1="444.0258" y2="304.9979"><stop offset="0" stop-color="#c8cbf2"></stop><stop offset="1" stop-color="#afb0e7"></stop></linearGradient><linearGradient gradientUnits="objectBoundingBox" id="SVGID_26_" node-id="129" spreadMethod="pad" x1="489.2832" x2="489.2832" y1="447.6924" y2="304.9979"><stop offset="0.15" stop-color="#dae4f6"></stop><stop offset="1" stop-color="#ffffff"></stop></linearGradient><linearGradient gradientUnits="objectBoundingBox" id="SVGID_27_" node-id="133" spreadMethod="pad" x1="362.5715" x2="362.5715" y1="420.7576" y2="494.5712"><stop offset="0" stop-color="#c8cbf2"></stop><stop offset="1" stop-color="#afb0e7"></stop></linearGradient><linearGradient gradientUnits="objectBoundingBox" id="SVGID_28_" node-id="138" spreadMethod="pad" x1="545.2297" x2="694.4732" y1="279.1754" y2="537.6726"><stop offset="0" stop-color="#c8cbf2"></stop><stop offset="1" stop-color="#afb0e7"></stop></linearGradient><linearGradient gradientUnits="objectBoundingBox" id="SVGID_29_" node-id="142" spreadMethod="pad" x1="702.0118" x2="522.1606" y1="499.4715" y2="319.6202"><stop offset="0.15" stop-color="#acc5ea"></stop><stop offset="1" stop-color="#d9e1fd"></stop></linearGradient><linearGradient gradientUnits="objectBoundingBox" id="SVGID_30_" node-id="146" spreadMethod="pad" x1="576.2454" x2="645.9352" y1="367.3723" y2="488.0787"><stop offset="0" stop-color="#c8cbf2"></stop><stop offset="1" stop-color="#afb0e7"></stop></linearGradient><linearGradient gradientUnits="objectBoundingBox" id="SVGID_31_" node-id="150" spreadMethod="pad" x1="652.5276" x2="570.1406" y1="470.1208" y2="387.7339"><stop offset="0.15" stop-color="#dae4f6"></stop><stop offset="1" stop-color="#ffffff"></stop></linearGradient><linearGradient gradientUnits="objectBoundingBox" id="SVGID_32_" node-id="154" spreadMethod="pad" x1="604.0709" x2="621.2349" y1="528.9216" y2="558.6504"><stop offset="0" stop-color="#c8cbf2"></stop><stop offset="1" stop-color="#afb0e7"></stop></linearGradient><linearGradient gradientUnits="objectBoundingBox" id="SVGID_33_" node-id="158" spreadMethod="pad" x1="623.0303" x2="602.2754" y1="554.1635" y2="533.4085"><stop offset="0.15" stop-color="#dae4f6"></stop><stop offset="1" stop-color="#ffffff"></stop></linearGradient><linearGradient gradientUnits="objectBoundingBox" id="SVGID_34_" node-id="163" spreadMethod="pad" x1="457.0449" x2="457.0449" y1="620.3301" y2="544.7101"><stop offset="0" stop-color="#c3d5fd"></stop><stop offset="1" stop-color="#1a90fc"></stop></linearGradient><linearGradient gradientUnits="objectBoundingBox" id="SVGID_35_" node-id="167" spreadMethod="pad" x1="458.0935" x2="458.0935" y1="531.8132" y2="555.769"><stop offset="0" stop-color="#f4ae98"></stop><stop offset="1" stop-color="#fad1bb"></stop></linearGradient><linearGradient gradientUnits="objectBoundingBox" id="SVGID_36_" node-id="171" spreadMethod="pad" x1="-1270.892" x2="-1259.183" y1="99.3984" y2="16.9548"><stop offset="0" stop-color="#c3d5fd"></stop><stop offset="1" stop-color="#1a90fc"></stop></linearGradient><linearGradient gradientUnits="objectBoundingBox" id="SVGID_37_" node-id="175" spreadMethod="pad" x1="4672.3623" x2="4684.071" y1="943.4804" y2="861.0368"><stop offset="0" stop-color="#c3d5fd"></stop><stop offset="1" stop-color="#1a90fc"></stop></linearGradient><linearGradient gradientUnits="objectBoundingBox" id="SVGID_38_" node-id="179" spreadMethod="pad" x1="457.0449" x2="457.0449" y1="593.0207" y2="641.076"><stop offset="0" stop-color="#275c89"></stop><stop offset="1" stop-color="#013f7c"></stop></linearGradient><linearGradient gradientUnits="objectBoundingBox" id="SVGID_39_" node-id="185" spreadMethod="pad" x1="6324.4624" x2="6341.4746" y1="661.8155" y2="661.8155"><stop offset="0" stop-color="#f4b9a4"></stop><stop offset="0.652" stop-color="#fad1bb"></stop></linearGradient><linearGradient gradientUnits="objectBoundingBox" id="SVGID_40_" node-id="189" spreadMethod="pad" x1="433.9784" x2="521.7411" y1="643.0652" y2="643.0652"><stop offset="0" stop-color="#18264b"></stop><stop offset="0.652" stop-color="#2d3c65"></stop></linearGradient><linearGradient gradientUnits="objectBoundingBox" id="SVGID_41_" node-id="193" spreadMethod="pad" x1="414.1901" x2="414.1901" y1="653.5508" y2="671.6094"><stop offset="0" stop-color="#ffdb80"></stop><stop offset="1" stop-color="#ffbb24"></stop></linearGradient><linearGradient gradientUnits="objectBoundingBox" id="SVGID_42_" node-id="199" spreadMethod="pad" x1="476.3806" x2="493.3929" y1="661.8154" y2="661.8154"><stop offset="0" stop-color="#f4b9a4"></stop><stop offset="0.652" stop-color="#fad1bb"></stop></linearGradient><linearGradient gradientUnits="objectBoundingBox" id="SVGID_43_" node-id="203" spreadMethod="pad" x1="395.5731" x2="483.3358" y1="643.0652" y2="643.0652"><stop offset="0" stop-color="#445677"></stop><stop offset="1" stop-color="#293861"></stop></linearGradient><linearGradient gradientUnits="objectBoundingBox" id="SVGID_44_" node-id="207" spreadMethod="pad" x1="503.1241" x2="503.1241" y1="653.5508" y2="671.6094"><stop offset="0" stop-color="#ffdb80"></stop><stop offset="1" stop-color="#ffbb24"></stop></linearGradient><linearGradient gradientUnits="objectBoundingBox" id="SVGID_45_" node-id="211" spreadMethod="pad" x1="473.7732" x2="442.4658" y1="526.3181" y2="526.3181"><stop offset="0" stop-color="#f4b9a4"></stop><stop offset="0.652" stop-color="#fad1bb"></stop></linearGradient><linearGradient gradientUnits="objectBoundingBox" id="SVGID_46_" node-id="215" spreadMethod="pad" x1="438.1573" x2="474.5051" y1="514.2165" y2="514.2165"><stop offset="0" stop-color="#4f5c7c"></stop><stop offset="1" stop-color="#274168"></stop></linearGradient></defs><g node-id="663"><g node-id="664"><g node-id="665"><path d="M 485.40 203.30 L 480.50 206.90 L 475.10 210.20 L 469.20 213.30 L 462.80 216.20 L 456.40 218.60 L 442.40 222.60 L 434.80 224.20 L 424.60 225.70 L 414.10 226.70 L 403.10 227.10 L 392.00 226.80 L 380.90 225.90 L 369.50 224.40 L 361.00 222.80 L 344.30 218.60 L 335.90 215.90 L 327.80 212.80 L 319.70 209.30 L 311.90 205.40 L 297.60 197.40 L 290.70 194.10 L 283.30 191.00 L 267.70 185.80 L 251.40 182.00 L 234.50 179.60 L 217.40 178.70 L 208.80 178.80 L 200.10 179.30 L 191.70 180.20 L 183.40 181.40 L 175.20 183.10 L 167.10 185.10 L 159.40 187.60 L 151.90 190.50 L 144.70 193.80 L 137.70 197.50 L 131.20 201.70 L 125.20 206.30 L 119.50 211.30 L 115.30 215.60 L 111.50 220.20 L 108.00 225.10 L 104.80 230.40 L 102.00 236.00 L 99.40 242.30 L 97.40 248.50 L 95.90 254.60 L 94.90 260.70 L 94.00 273.00 L 94.70 285.20 L 95.80 293.20 L 97.30 301.20 L 102.50 320.90 L 115.60 362.20 L 118.80 376.20 L 119.80 383.10 L 120.20 389.80 L 120.00 396.30 L 119.40 401.10 L 118.30 405.80 L 116.80 410.40 L 114.80 414.90 L 111.50 420.80 L 103.30 433.70 L 81.20 465.10 L 73.50 476.60 L 64.00 492.30 L 59.70 500.50 L 55.80 508.80 L 52.40 517.30 L 49.60 526.00 L 48.00 532.60 L 46.70 539.30 L 46.00 546.10 L 45.60 553.00 L 45.80 559.90 L 46.60 566.90 L 47.90 574.10 L 49.90 581.50 L 54.30 592.90 L 57.20 598.90 L 64.80 611.30 L 71.10 620.00 L 77.30 627.60 L 83.40 634.40 L 89.50 640.30 L 96.10 645.90 L 102.60 650.90 L 109.00 655.10 L 115.30 658.70 L 121.90 662.00 L 128.50 664.70 L 135.00 666.90 L 141.40 668.70 L 150.10 670.50 L 158.70 671.60 L 167.10 672.20 L 175.50 672.20 L 191.60 671.20 L 203.30 669.60 L 234.00 663.80 L 240.30 662.90 L 246.70 662.40 L 253.30 662.50 L 259.90 663.00 L 268.70 664.30 L 277.70 666.20 L 287.00 668.80 L 305.60 675.20 L 359.90 697.30 L 375.30 703.10 L 385.70 706.70 L 396.30 709.80 L 406.90 712.60 L 423.10 715.70 L 431.20 716.70 L 439.50 717.30 L 447.70 717.50 L 456.00 717.10 L 464.40 716.30 L 473.00 714.90 L 481.30 713.00 L 489.80 710.50 L 498.50 707.20 L 507.40 703.20 L 514.10 699.70 L 521.00 695.70 L 528.00 691.00 L 535.20 685.80 L 547.90 675.80 L 553.30 672.30 L 558.70 669.40 L 564.10 667.00 L 575.40 663.40 L 587.00 661.30 L 594.80 660.60 L 602.70 660.30 L 622.70 661.00 L 658.50 664.00 L 666.30 664.40 L 681.40 664.00 L 688.80 663.20 L 695.90 661.70 L 702.80 659.70 L 707.80 657.80 L 712.70 655.30 L 717.50 652.40 L 722.30 648.90 L 726.60 645.10 L 730.80 640.60 L 735.00 635.40 L 739.10 629.30 L 742.70 623.10 L 746.10 616.00 L 749.50 607.90 L 752.80 598.60 L 755.00 590.80 L 756.70 583.40 L 757.80 576.40 L 758.40 569.80 L 758.60 563.10 L 758.40 556.60 L 757.80 550.40 L 756.80 544.40 L 754.90 536.50 L 752.50 528.90 L 749.70 521.60 L 746.50 514.60 L 739.10 501.10 L 733.00 491.40 L 714.40 464.00 L 708.90 455.10 L 704.10 446.40 L 701.30 440.50 L 699.10 434.60 L 697.50 428.70 L 696.60 424.20 L 696.10 419.60 L 696.10 415.00 L 696.40 410.20 L 697.20 405.60 L 698.50 400.80 L 700.40 395.80 L 707.40 381.30 L 711.40 372.00 L 715.00 362.60 L 718.10 353.20 L 720.80 343.60 L 723.00 334.10 L 724.80 324.70 L 726.10 315.30 L 727.10 305.80 L 727.50 296.50 L 727.60 287.30 L 727.30 278.30 L 726.50 269.30 L 725.30 260.60 L 723.70 252.20 L 721.80 244.00 L 719.40 235.90 L 716.60 228.10 L 713.50 220.80 L 710.10 213.80 L 706.10 207.00 L 701.90 200.70 L 697.30 194.90 L 692.40 189.50 L 688.10 185.50 L 683.40 181.80 L 678.10 178.40 L 672.30 175.20 L 666.40 172.50 L 660.10 170.00 L 653.30 167.90 L 646.20 166.00 L 631.50 163.40 L 615.70 162.10 L 604.90 162.00 L 593.90 162.50 L 582.60 163.60 L 571.30 165.40 L 560.00 167.80 L 548.70 170.90 L 532.00 176.70 L 515.70 184.00 L 507.80 188.30 L 500.10 192.90 L 492.60 197.90 L 485.40 203.30 Z" fill="url(#SVGID_1_)" fill-rule="nonzero" group-id="15,16,17" node-id="518" stroke="none" target-height="555.5" target-width="713" target-x="45.6" target-y="162"></path><g node-id="668"><path d="M 117.20 405.40 L 116.90 405.20 L 116.60 405.40 L 113.70 412.40 L 105.20 435.30 L 98.50 456.60 L 95.30 468.40 L 92.50 480.40 L 88.90 500.70 L 87.40 518.30 L 87.70 523.10 L 88.50 526.10 L 91.00 531.60 L 94.60 535.70 L 97.00 537.50 L 99.90 539.10 L 103.50 540.50 L 107.30 541.50 L 112.00 542.10 L 117.70 542.30 L 122.00 542.10 L 128.80 540.70 L 131.50 539.60 L 134.90 537.60 L 137.60 535.50 L 139.80 533.00 L 141.50 530.30 L 143.80 524.50 L 144.80 520.10 L 145.20 516.10 L 145.10 504.70 L 143.60 493.30 L 141.90 484.20 L 139.60 474.40 L 134.10 454.60 L 128.10 435.90 L 117.20 405.40 Z" fill="url(#SVGID_2_)" fill-rule="nonzero" group-id="15,16,17,20" node-id="522" stroke="none" target-height="137.09998" target-width="57.799995" target-x="87.4" target-y="405.2"></path><g node-id="675"><path d="M 116.40 571.50 L 115.70 571.20 L 115.40 570.50 L 115.40 421.40 L 115.70 420.70 L 116.40 420.40 L 117.10 420.70 L 117.40 421.40 L 117.40 570.50 L 117.10 571.20 L 116.40 571.50 Z" fill="url(#SVGID_3_)" fill-rule="nonzero" group-id="15,16,17,20,27" node-id="526" stroke="none" target-height="151.1" target-width="2" target-x="115.4" target-y="420.4"></path></g></g><g node-id="669"><path d="M 618.00 362.60 L 617.70 362.70 L 615.80 367.10 L 612.30 376.20 L 608.10 388.60 L 604.00 403.20 L 602.20 410.90 L 599.50 426.60 L 598.90 434.10 L 599.00 437.60 L 599.40 440.00 L 600.30 442.40 L 602.00 445.00 L 603.40 446.50 L 605.30 447.90 L 607.90 449.20 L 610.50 450.00 L 614.00 450.60 L 618.30 450.80 L 622.00 450.50 L 624.90 449.90 L 627.20 449.10 L 631.20 446.40 L 632.60 444.80 L 634.20 442.10 L 635.20 439.40 L 636.10 433.90 L 636.20 429.70 L 635.80 424.10 L 633.20 410.30 L 631.30 402.80 L 627.00 388.10 L 618.00 362.60 Z" fill="url(#SVGID_4_)" fill-rule="nonzero" group-id="15,16,17,21" node-id="532" stroke="none" target-height="88.19998" target-width="37.299988" target-x="598.9" target-y="362.6"></path><g node-id="676"><path d="M 617.50 469.60 L 616.90 469.00 L 617.00 372.50 L 618.00 372.50 L 618.10 372.90 L 618.10 469.00 L 617.50 469.60 Z" fill="url(#SVGID_5_)" fill-rule="nonzero" group-id="15,16,17,21,28" node-id="536" stroke="none" target-height="97.100006" target-width="1.1999512" target-x="616.9" target-y="372.5"></path></g></g><path d="M 480.80 118.30 L 480.50 123.10 L 479.50 127.60 L 478.10 131.80 L 476.00 135.90 L 473.60 139.50 L 470.60 142.90 L 467.30 145.80 L 463.60 148.30 L 459.60 150.30 L 455.30 151.80 L 450.80 152.70 L 446.00 153.10 L 441.30 152.70 L 436.80 151.80 L 432.50 150.30 L 428.50 148.30 L 424.80 145.80 L 421.50 142.90 L 418.50 139.50 L 416.00 135.90 L 414.00 131.80 L 412.50 127.60 L 411.60 123.10 L 411.30 118.30 L 411.60 113.50 L 412.50 109.00 L 414.00 104.80 L 416.00 100.70 L 418.50 97.10 L 421.50 93.70 L 424.80 90.80 L 428.50 88.30 L 432.50 86.30 L 436.80 84.80 L 441.30 83.90 L 446.00 83.60 L 450.80 83.90 L 455.30 84.80 L 459.60 86.30 L 463.60 88.30 L 467.30 90.80 L 470.60 93.70 L 473.60 97.10 L 476.00 100.70 L 478.10 104.80 L 479.50 109.00 L 480.50 113.50 L 480.80 118.30 Z" fill="url(#SVGID_6_)" fill-rule="nonzero" group-id="15,16,17" node-id="540" stroke="none" target-height="69.50001" target-width="69.5" target-x="411.3" target-y="83.6"></path><path d="M 465.80 137.30 L 431.20 137.30 L 430.20 133.80 L 428.80 130.60 L 426.80 127.70 L 424.50 125.10 L 421.80 122.90 L 418.80 121.10 L 415.50 119.80 L 412.10 119.00 L 408.30 118.70 L 404.60 119.00 L 401.10 119.80 L 397.90 121.10 L 394.80 122.90 L 392.20 125.10 L 389.80 127.70 L 387.90 130.60 L 386.40 133.80 L 385.40 137.30 L 376.30 137.30 L 372.80 137.60 L 369.50 138.50 L 366.50 139.90 L 363.80 141.80 L 361.50 144.10 L 359.60 146.90 L 358.10 149.90 L 357.20 153.10 L 356.90 156.70 L 357.20 160.20 L 358.10 163.50 L 359.60 166.50 L 361.50 169.20 L 363.80 171.50 L 366.50 173.50 L 369.50 174.90 L 372.80 175.80 L 376.30 176.10 L 465.80 176.10 L 469.40 175.80 L 472.60 174.90 L 475.60 173.50 L 478.30 171.50 L 480.70 169.20 L 482.60 166.50 L 484.00 163.50 L 484.90 160.20 L 485.30 156.70 L 484.90 153.10 L 484.00 149.90 L 482.60 146.90 L 480.70 144.10 L 478.40 141.80 L 475.60 139.90 L 472.60 138.50 L 469.40 137.60 L 465.80 137.30 Z" fill="url(#SVGID_7_)" fill-rule="nonzero" group-id="15,16,17" node-id="542" stroke="none" target-height="57.40001" target-width="128.4" target-x="356.9" target-y="118.7"></path><g node-id="670"><path d="M 702.00 526.10 L 701.80 528.70 L 701.10 531.00 L 700.10 533.20 L 698.70 535.10 L 697.10 536.80 L 695.10 538.10 L 693.00 539.20 L 690.60 539.80 L 688.10 540.00 L 685.60 539.80 L 683.20 539.20 L 681.10 538.10 L 677.50 535.10 L 675.10 531.00 L 674.40 528.70 L 674.20 526.10 L 674.40 523.60 L 675.10 521.30 L 676.10 519.10 L 677.50 517.20 L 681.10 514.10 L 683.20 513.10 L 685.60 512.50 L 688.10 512.20 L 690.60 512.50 L 693.00 513.10 L 695.10 514.10 L 697.10 515.50 L 698.70 517.20 L 700.10 519.10 L 701.10 521.30 L 701.80 523.60 L 702.00 526.10 Z" fill="url(#SVGID_8_)" fill-rule="nonzero" group-id="15,16,17,22" node-id="546" stroke="none" target-height="27.799988" target-width="27.799988" target-x="674.2" target-y="512.2"></path><path d="M 688.20 560.50 L 687.70 560.10 L 687.80 515.90 L 688.50 515.90 L 688.60 516.20 L 688.60 560.10 L 688.20 560.50 Z" fill="url(#SVGID_9_)" fill-rule="nonzero" group-id="15,16,17,22" node-id="548" stroke="none" target-height="44.599976" target-width="0.8999634" target-x="687.7" target-y="515.9"></path></g></g><path d="M 417.20 465.20 L 578.00 465.20 L 537.40 561.90 L 380.40 565.40 Z" fill="url(#SVGID_10_)" fill-rule="nonzero" group-id="15,16" node-id="552" stroke="none" target-height="100.20001" target-width="197.6" target-x="380.4" target-y="465.2"></path><path d="M 463.90 564.10 L 564.60 564.10 L 515.50 641.90 L 501.00 649.20 L 507.10 649.60 L 509.70 650.10 L 515.20 652.00 L 517.70 653.50 L 520.20 656.40 L 521.00 658.20 L 521.50 660.20 L 521.60 662.60 L 521.20 665.40 L 514.10 665.30 L 506.10 664.80 L 497.90 663.90 L 480.70 661.30 L 456.40 656.40 L 431.10 650.20 L 463.90 564.10 Z" fill="url(#SVGID_11_)" fill-rule="nonzero" group-id="15,16" node-id="554" stroke="none" target-height="101.30005" target-width="133.49997" target-x="431.1" target-y="564.1"></path><path d="M 622.40 456.70 L 686.50 456.70 L 648.00 555.40 L 610.00 555.40 Z" fill="url(#SVGID_12_)" fill-rule="nonzero" group-id="15,16" node-id="556" stroke="none" target-height="98.70001" target-width="76.5" target-x="610" target-y="456.7"></path><g node-id="666"><g node-id="671"><path d="M 446.70 337.20 L 279.10 337.20 L 275.40 337.00 L 271.80 336.20 L 268.50 335.10 L 265.30 333.40 L 262.40 331.50 L 259.70 329.10 L 257.40 326.50 L 255.40 323.50 L 253.80 320.30 L 252.70 316.90 L 251.90 313.40 L 251.70 309.60 L 251.70 267.60 L 251.90 263.80 L 252.70 260.20 L 253.80 256.80 L 255.40 253.60 L 257.40 250.70 L 259.70 248.00 L 262.40 245.70 L 265.30 243.70 L 268.50 242.10 L 271.80 240.90 L 275.40 240.10 L 279.10 239.90 L 446.70 239.90 L 450.50 240.10 L 454.10 240.90 L 457.40 242.10 L 460.60 243.70 L 463.50 245.70 L 466.10 248.00 L 468.50 250.70 L 470.40 253.60 L 472.00 256.80 L 473.20 260.20 L 473.90 263.80 L 474.20 267.60 L 474.20 309.60 L 473.90 313.40 L 473.20 316.90 L 472.00 320.30 L 470.40 323.50 L 468.50 326.50 L 466.20 329.10 L 463.50 331.50 L 460.60 333.40 L 457.40 335.10 L 454.10 336.20 L 450.50 337.00 L 446.70 337.20 Z M 283.00 258.00 L 279.70 258.60 L 278.20 259.30 L 276.30 260.80 L 274.80 262.70 L 274.10 264.20 L 273.50 267.60 L 273.60 311.30 L 274.80 314.40 L 276.30 316.40 L 278.20 317.90 L 279.70 318.60 L 283.00 319.20 L 446.70 319.20 L 450.10 318.60 L 451.50 317.90 L 453.50 316.40 L 455.00 314.40 L 455.70 312.90 L 456.30 309.60 L 456.10 265.80 L 455.00 262.70 L 453.50 260.80 L 451.50 259.30 L 450.10 258.60 L 446.70 258.00 L 283.00 258.00 Z" fill="url(#SVGID_13_)" fill-rule="nonzero" group-id="15,16,18,23" node-id="562" stroke="none" target-height="97.30002" target-width="222.50002" target-x="251.7" target-y="239.9"></path></g><g node-id="672"><path d="M 436.10 338.20 L 277.60 338.20 L 274.10 337.90 L 270.70 337.20 L 267.50 336.10 L 264.50 334.60 L 261.80 332.80 L 259.30 330.60 L 257.10 328.10 L 255.20 325.30 L 253.70 322.30 L 252.60 319.10 L 251.90 315.80 L 251.70 312.20 L 251.70 272.80 L 251.90 269.20 L 252.60 265.90 L 253.70 262.70 L 255.20 259.70 L 257.10 256.90 L 259.30 254.40 L 261.80 252.20 L 264.50 250.40 L 267.50 248.90 L 270.70 247.80 L 274.10 247.10 L 277.60 246.80 L 436.10 246.80 L 439.70 247.10 L 443.00 247.80 L 446.20 248.90 L 449.20 250.40 L 452.00 252.20 L 454.50 254.40 L 456.70 256.90 L 458.50 259.70 L 460.10 262.70 L 461.20 265.90 L 461.90 269.20 L 462.10 272.80 L 462.10 312.20 L 461.90 315.80 L 461.20 319.10 L 460.10 322.30 L 458.50 325.30 L 456.70 328.10 L 454.50 330.60 L 452.00 332.80 L 449.20 334.60 L 446.20 336.10 L 443.00 337.20 L 439.70 337.90 L 436.10 338.20 Z M 277.60 263.80 L 275.20 264.10 L 273.10 265.00 L 271.30 266.40 L 269.90 268.30 L 269.00 270.40 L 268.60 272.80 L 268.60 312.20 L 269.00 314.60 L 269.90 316.70 L 271.30 318.60 L 273.10 320.00 L 275.20 320.90 L 277.60 321.20 L 436.10 321.20 L 438.50 320.90 L 440.70 320.00 L 442.50 318.60 L 443.90 316.70 L 444.80 314.60 L 445.10 312.20 L 445.10 272.80 L 444.80 270.40 L 443.90 268.30 L 442.50 266.40 L 440.70 265.00 L 438.50 264.10 L 436.10 263.80 L 277.60 263.80 Z" fill="url(#SVGID_14_)" fill-rule="nonzero" group-id="15,16,18,24" node-id="567" stroke="none" target-height="91.40001" target-width="210.40001" target-x="251.7" target-y="246.8"></path></g><path d="M 515.70 575.90 L 209.20 575.90 L 206.00 575.70 L 202.90 575.10 L 197.30 572.70 L 192.60 569.00 L 189.00 564.30 L 186.60 558.70 L 186.00 555.70 L 185.80 552.50 L 185.80 436.70 L 186.00 433.40 L 186.60 430.40 L 187.60 427.50 L 190.60 422.40 L 194.90 418.10 L 197.30 416.50 L 202.90 414.10 L 206.00 413.50 L 209.20 413.30 L 515.70 413.30 L 518.90 413.50 L 522.00 414.10 L 527.60 416.50 L 532.30 420.10 L 535.90 424.80 L 538.30 430.40 L 538.90 433.40 L 539.10 436.70 L 539.10 552.50 L 538.90 555.70 L 538.30 558.70 L 535.90 564.30 L 534.30 566.80 L 530.00 571.00 L 524.80 574.10 L 522.00 575.10 L 518.90 575.70 L 515.70 575.90 Z" fill="url(#SVGID_15_)" fill-rule="nonzero" group-id="15,16,18" node-id="570" stroke="none" target-height="162.60004" target-width="353.3" target-x="185.8" target-y="413.3"></path><path d="M 502.90 575.90 L 209.20 575.90 L 206.00 575.70 L 202.90 575.10 L 197.30 572.70 L 192.60 569.00 L 189.00 564.30 L 186.60 558.70 L 186.00 555.70 L 185.80 552.50 L 185.80 436.70 L 186.00 433.40 L 186.60 430.40 L 187.60 427.50 L 190.60 422.40 L 194.90 418.10 L 197.30 416.50 L 202.90 414.10 L 206.00 413.50 L 209.20 413.30 L 502.90 413.30 L 506.10 413.50 L 509.20 414.10 L 514.70 416.50 L 519.50 420.10 L 523.10 424.80 L 525.50 430.40 L 526.10 433.40 L 526.30 436.70 L 526.30 552.50 L 526.10 555.70 L 525.50 558.70 L 523.10 564.30 L 521.50 566.80 L 517.20 571.00 L 512.00 574.10 L 509.20 575.10 L 506.10 575.70 L 502.90 575.90 Z" fill="url(#SVGID_16_)" fill-rule="nonzero" group-id="15,16,18" node-id="572" stroke="none" target-height="162.60004" target-width="340.5" target-x="185.8" target-y="413.3"></path><path d="M 218.60 413.30 L 241.00 413.30 L 241.00 575.90 L 218.60 575.90 Z" fill="url(#SVGID_17_)" fill-rule="nonzero" group-id="15,16,18" node-id="574" stroke="none" target-height="162.60004" target-width="22.399994" target-x="218.6" target-y="413.3"></path><path d="M 213.50 413.30 L 235.50 413.30 L 235.50 575.90 L 213.50 575.90 Z" fill="url(#SVGID_18_)" fill-rule="nonzero" group-id="15,16,18" node-id="576" stroke="none" target-height="162.60004" target-width="22" target-x="213.5" target-y="413.3"></path><path d="M 483.50 413.20 L 505.40 413.20 L 505.40 575.80 L 483.50 575.80 Z" fill="url(#SVGID_19_)" fill-rule="nonzero" group-id="15,16,18" node-id="578" stroke="none" target-height="162.59998" target-width="21.899994" target-x="483.5" target-y="413.2"></path><path d="M 478.30 413.30 L 500.30 413.30 L 500.30 575.90 L 478.30 575.90 Z" fill="url(#SVGID_20_)" fill-rule="nonzero" group-id="15,16,18" node-id="580" stroke="none" target-height="162.60004" target-width="22" target-x="478.3" target-y="413.3"></path><path d="M 533.30 446.90 L 372.30 475.80 L 369.60 476.10 L 366.90 475.90 L 188.10 446.80 L 185.30 446.10 L 182.80 445.00 L 180.50 443.40 L 178.50 441.50 L 176.80 439.40 L 175.40 436.90 L 174.40 434.20 L 173.80 431.30 L 173.60 428.30 L 175.80 313.30 L 176.10 310.00 L 177.00 307.00 L 178.20 304.20 L 180.00 301.60 L 182.00 299.50 L 184.40 297.70 L 187.00 296.40 L 189.80 295.60 L 192.90 295.30 L 531.70 295.30 L 536.40 296.10 L 538.60 297.10 L 542.60 300.00 L 546.00 303.90 L 548.40 308.50 L 549.60 313.50 L 547.50 429.20 L 547.20 432.10 L 546.60 434.80 L 544.10 439.70 L 540.50 443.60 L 538.30 445.10 L 535.90 446.20 L 533.30 446.90 Z" fill="url(#SVGID_21_)" fill-rule="nonzero" group-id="15,16,18" node-id="582" stroke="none" target-height="180.80002" target-width="375.99997" target-x="173.6" target-y="295.3"></path><path d="M 519.80 440.80 L 362.30 466.90 L 359.70 466.70 L 187.60 440.70 L 184.90 440.00 L 182.50 439.00 L 180.30 437.60 L 178.30 435.90 L 176.60 434.00 L 175.30 431.80 L 174.30 429.40 L 173.70 426.80 L 173.60 424.10 L 175.70 321.10 L 176.00 318.10 L 176.80 315.40 L 178.10 313.00 L 179.70 310.70 L 181.70 308.80 L 183.90 307.20 L 186.50 306.00 L 189.20 305.30 L 192.10 305.00 L 519.30 305.00 L 522.30 305.30 L 525.10 306.10 L 527.60 307.30 L 530.00 309.00 L 531.90 311.00 L 533.60 313.30 L 534.70 315.90 L 535.50 318.70 L 535.70 321.80 L 533.50 424.90 L 532.60 429.90 L 531.70 432.20 L 528.70 436.20 L 524.70 439.10 L 519.80 440.80 Z" fill="url(#SVGID_22_)" fill-rule="nonzero" group-id="15,16,18" node-id="584" stroke="none" target-height="161.9" target-width="362.1" target-x="173.6" target-y="305"></path><path d="M 233.20 306.30 L 235.50 305.00 L 241.20 305.00 L 241.00 448.80 L 235.30 447.80 L 232.00 444.90 Z" fill="url(#SVGID_23_)" fill-rule="nonzero" group-id="15,16,18" node-id="586" stroke="none" target-height="143.79999" target-width="9.199997" target-x="232" target-y="305"></path><path d="M 213.50 444.60 L 235.50 447.90 L 235.50 305.00 L 213.50 305.00 Z" fill="url(#SVGID_24_)" fill-rule="nonzero" group-id="15,16,18" node-id="588" stroke="none" target-height="142.9" target-width="22" target-x="213.5" target-y="305"></path><path d="M 494.90 307.10 L 500.30 305.00 L 505.30 305.00 L 505.50 443.10 L 500.30 444.00 L 498.40 443.40 Z" fill="url(#SVGID_25_)" fill-rule="nonzero" group-id="15,16,18" node-id="590" stroke="none" target-height="139" target-width="10.600006" target-x="494.9" target-y="305"></path><path d="M 478.30 447.70 L 500.30 444.00 L 500.30 305.00 L 478.30 305.00 Z" fill="url(#SVGID_26_)" fill-rule="nonzero" group-id="15,16,18" node-id="592" stroke="none" target-height="142.70001" target-width="22" target-x="478.3" target-y="305"></path><path d="M 362.60 494.60 L 359.80 494.30 L 357.20 493.60 L 354.90 492.50 L 352.70 491.00 L 350.90 489.20 L 349.40 487.00 L 348.30 484.60 L 347.60 482.10 L 347.30 479.30 L 347.30 436.00 L 347.60 433.20 L 348.30 430.70 L 349.40 428.30 L 350.90 426.20 L 352.70 424.40 L 354.90 422.80 L 357.20 421.70 L 359.80 421.00 L 362.60 420.80 L 365.40 421.00 L 367.90 421.70 L 370.30 422.80 L 372.40 424.40 L 374.20 426.20 L 375.80 428.30 L 376.90 430.70 L 377.60 433.20 L 377.80 436.00 L 377.80 479.30 L 377.60 482.10 L 376.90 484.60 L 375.80 487.00 L 374.20 489.20 L 372.40 491.00 L 370.30 492.50 L 367.90 493.60 L 365.40 494.30 L 362.60 494.60 Z" fill="url(#SVGID_27_)" fill-rule="nonzero" group-id="15,16,18" node-id="594" stroke="none" target-height="73.80002" target-width="30.5" target-x="347.3" target-y="420.8"></path><path d="M 360.90 494.60 L 358.40 494.30 L 356.20 493.70 L 354.00 492.70 L 352.10 491.40 L 349.20 487.80 L 348.20 485.70 L 347.50 483.50 L 347.30 481.00 L 347.30 438.50 L 347.50 436.00 L 348.20 433.70 L 350.50 429.70 L 354.00 426.80 L 356.20 425.80 L 358.40 425.10 L 360.90 424.90 L 363.40 425.10 L 365.70 425.80 L 369.70 428.10 L 372.70 431.60 L 373.70 433.70 L 374.30 436.00 L 374.50 438.50 L 374.50 481.00 L 374.30 483.50 L 373.70 485.70 L 372.70 487.80 L 369.70 491.40 L 367.80 492.70 L 365.70 493.70 L 363.40 494.30 L 360.90 494.60 Z" fill="#ffffff" fill-rule="nonzero" group-id="15,16,18" node-id="596" stroke="none" target-height="69.70001" target-width="27.200012" target-x="347.3" target-y="424.9"></path><path d="M 635.20 328.20 L 638.80 326.40 L 642.30 324.10 L 645.60 321.40 L 651.40 315.10 L 656.10 307.60 L 657.90 303.60 L 659.40 299.40 L 660.50 295.20 L 661.20 290.90 L 661.50 286.50 L 661.20 282.00 L 660.40 277.70 L 659.10 273.50 L 657.30 269.50 L 655.20 265.70 L 652.60 262.10 L 649.70 258.80 L 646.40 255.70 L 642.80 252.90 L 641.20 252.00 L 639.40 251.80 L 636.00 252.60 L 633.50 254.50 L 632.80 255.70 L 632.60 256.80 L 637.00 294.10 L 636.80 295.30 L 636.10 296.20 L 635.20 296.90 L 634.00 297.10 L 601.60 296.60 L 600.40 296.40 L 599.40 295.70 L 598.80 294.80 L 598.60 293.60 L 598.60 255.20 L 597.90 253.80 L 595.50 252.50 L 593.70 252.30 L 591.90 252.50 L 590.50 253.10 L 587.00 255.90 L 584.00 259.00 L 581.50 262.60 L 579.40 266.40 L 577.70 270.50 L 576.40 275.00 L 575.60 279.50 L 575.20 284.20 L 575.20 289.10 L 575.80 294.30 L 577.00 299.30 L 578.80 304.00 L 581.10 308.40 L 583.90 312.50 L 587.20 316.20 L 590.80 319.60 L 594.80 322.40 L 599.20 324.90 L 587.20 546.00 L 587.20 550.30 L 587.90 554.30 L 589.00 558.20 L 590.70 561.90 L 592.80 565.20 L 595.30 568.30 L 598.20 571.00 L 601.40 573.30 L 604.90 575.10 L 608.70 576.50 L 612.70 577.40 L 616.90 577.70 L 621.20 577.40 L 625.30 576.50 L 629.30 575.00 L 633.20 573.10 L 636.70 570.70 L 639.90 567.90 L 642.70 564.70 L 645.10 561.20 L 647.00 557.50 L 648.80 551.50 L 649.20 545.10 L 635.20 328.20 Z" fill="url(#SVGID_28_)" fill-rule="nonzero" group-id="15,16,18" node-id="598" stroke="none" target-height="325.90002" target-width="86.29999" target-x="575.2" target-y="251.8"></path><path d="M 628.50 326.90 L 632.10 325.10 L 638.70 320.60 L 644.30 315.00 L 646.60 311.80 L 650.40 304.70 L 651.80 301.00 L 652.80 297.00 L 653.50 292.90 L 653.70 288.60 L 653.40 284.10 L 652.70 279.80 L 651.60 275.60 L 650.10 271.60 L 648.10 267.90 L 645.80 264.30 L 643.20 261.00 L 640.30 258.00 L 637.00 255.30 L 636.00 254.80 L 633.90 255.10 L 632.40 256.60 L 632.20 257.80 L 632.20 297.70 L 632.00 298.90 L 631.30 299.80 L 630.40 300.50 L 629.20 300.70 L 594.90 300.70 L 593.70 300.50 L 592.70 299.80 L 592.10 298.90 L 591.80 297.70 L 591.80 257.80 L 591.60 256.60 L 590.20 255.10 L 588.10 254.80 L 587.00 255.30 L 583.60 258.20 L 580.60 261.40 L 577.80 264.90 L 575.50 268.70 L 573.50 272.70 L 572.00 277.00 L 571.00 281.40 L 570.50 286.00 L 570.40 290.90 L 571.00 296.10 L 572.20 300.90 L 574.00 305.60 L 576.30 310.00 L 579.10 314.10 L 582.40 317.80 L 586.00 321.10 L 590.00 323.90 L 594.40 326.30 L 582.40 545.60 L 582.40 549.80 L 583.10 553.90 L 584.20 557.70 L 585.90 561.30 L 588.00 564.70 L 590.50 567.70 L 593.40 570.40 L 596.60 572.60 L 600.10 574.50 L 603.90 575.90 L 607.90 576.70 L 612.10 577.00 L 616.40 576.70 L 620.40 575.90 L 624.10 574.50 L 627.70 572.60 L 630.90 570.30 L 633.80 567.60 L 636.30 564.60 L 638.40 561.20 L 640.10 557.60 L 641.20 553.70 L 641.80 549.70 L 641.80 545.40 L 628.50 326.90 Z" fill="url(#SVGID_29_)" fill-rule="nonzero" group-id="15,16,18" node-id="600" stroke="none" target-height="322.2" target-width="83.29999" target-x="570.4" target-y="254.8"></path><path d="M 612.60 347.90 L 614.90 348.10 L 617.00 348.90 L 618.80 350.10 L 620.20 351.70 L 621.10 353.60 L 621.50 355.70 L 628.10 493.50 L 627.60 496.50 L 625.60 499.50 L 623.80 500.90 L 621.60 501.80 L 619.20 502.10 L 606.40 502.10 L 603.90 501.80 L 601.80 500.90 L 599.90 499.50 L 598.50 497.80 L 597.60 495.00 L 597.50 493.50 L 603.70 355.70 L 604.10 353.60 L 605.10 351.70 L 606.40 350.10 L 608.20 348.90 L 610.30 348.10 L 612.60 347.90 Z" fill="url(#SVGID_30_)" fill-rule="nonzero" group-id="15,16,18" node-id="602" stroke="none" target-height="154.20001" target-width="30.599976" target-x="597.5" target-y="347.9"></path><path d="M 611.30 350.00 L 613.40 350.20 L 615.30 351.00 L 616.90 352.20 L 618.20 353.80 L 619.00 355.60 L 619.40 357.70 L 625.30 493.60 L 625.10 495.80 L 624.30 497.80 L 623.10 499.60 L 621.40 500.90 L 619.50 501.80 L 617.20 502.10 L 605.60 502.10 L 603.30 501.80 L 601.40 500.90 L 599.70 499.60 L 598.50 497.90 L 597.70 495.90 L 597.50 493.60 L 603.20 357.70 L 603.50 355.60 L 604.40 353.80 L 605.70 352.20 L 607.30 351.00 L 609.20 350.20 L 611.30 350.00 Z" fill="url(#SVGID_31_)" fill-rule="nonzero" group-id="15,16,18" node-id="604" stroke="none" target-height="152.1" target-width="27.799988" target-x="597.5" target-y="350"></path><path d="M 629.90 543.80 L 629.80 546.10 L 628.60 550.30 L 626.40 554.20 L 624.90 555.90 L 623.10 557.40 L 619.30 559.60 L 614.90 560.80 L 612.70 560.90 L 610.40 560.80 L 606.00 559.60 L 602.20 557.40 L 600.40 555.90 L 597.70 552.30 L 596.00 548.20 L 595.50 546.10 L 595.40 543.80 L 596.00 539.30 L 597.70 535.20 L 600.40 531.70 L 602.20 530.20 L 606.00 528.00 L 610.40 526.80 L 612.70 526.70 L 614.90 526.80 L 619.30 528.00 L 623.10 530.20 L 624.90 531.70 L 626.40 533.40 L 628.60 537.20 L 629.80 541.50 L 629.90 543.80 Z" fill="url(#SVGID_32_)" fill-rule="nonzero" group-id="15,16,18" node-id="606" stroke="none" target-height="34.200012" target-width="34.5" target-x="595.4" target-y="526.7"></path><path d="M 627.30 543.80 L 627.10 546.50 L 626.40 548.90 L 625.30 551.20 L 623.90 553.30 L 622.10 555.00 L 620.10 556.50 L 617.80 557.60 L 615.30 558.20 L 612.70 558.50 L 610.00 558.20 L 607.50 557.60 L 605.20 556.50 L 603.20 555.00 L 601.40 553.30 L 600.00 551.20 L 598.90 548.90 L 598.20 546.50 L 598.00 543.80 L 598.20 541.10 L 598.90 538.70 L 600.00 536.40 L 601.40 534.30 L 603.20 532.60 L 605.20 531.10 L 607.50 530.00 L 610.00 529.40 L 612.70 529.10 L 615.30 529.40 L 617.80 530.00 L 620.10 531.10 L 622.10 532.60 L 623.90 534.30 L 625.30 536.40 L 626.40 538.70 L 627.10 541.10 L 627.30 543.80 Z" fill="url(#SVGID_33_)" fill-rule="nonzero" group-id="15,16,18" node-id="608" stroke="none" target-height="29.400024" target-width="29.299988" target-x="598" target-y="529.1"></path></g><g node-id="667"><path d="M 449.20 545.10 L 442.40 544.70 L 436.10 545.20 L 432.80 546.00 L 429.70 547.10 L 426.30 549.40 L 424.90 551.00 L 423.30 553.80 L 420.60 561.10 L 417.90 572.80 L 416.80 581.00 L 430.60 580.20 L 429.40 605.40 L 454.90 620.30 L 491.20 600.80 L 485.70 578.00 L 497.30 575.00 L 497.00 572.60 L 494.80 563.00 L 491.90 555.30 L 490.00 551.90 L 488.40 549.90 L 486.60 548.40 L 484.80 547.20 L 482.70 546.50 L 480.40 546.30 L 477.70 546.80 L 466.80 547.60 L 465.80 549.70 L 463.50 552.10 L 461.80 553.20 L 459.80 553.80 L 457.10 553.90 L 453.90 553.00 L 451.30 550.80 L 449.70 547.60 L 449.20 545.10 Z" fill="url(#SVGID_34_)" fill-rule="nonzero" group-id="15,16,19" node-id="613" stroke="none" target-height="75.599976" target-width="80.5" target-x="416.8" target-y="544.7"></path><path d="M 451.10 534.70 L 447.30 551.70 L 447.80 553.30 L 452.50 555.00 L 458.20 555.80 L 460.30 555.60 L 464.20 554.50 L 468.60 551.90 L 468.90 550.30 L 462.80 532.40 L 461.80 531.90 L 461.20 531.90 L 452.40 533.40 L 451.60 533.80 L 451.10 534.70 Z" fill="url(#SVGID_35_)" fill-rule="nonzero" group-id="15,16,19" node-id="615" stroke="none" target-height="23.899963" target-width="21.600006" target-x="447.3" target-y="531.9"></path><path d="M 428.30 548.00 L 432.50 547.40 L 434.60 547.70 L 436.60 548.50 L 438.80 550.70 L 440.40 554.10 L 441.20 559.40 L 440.90 563.10 L 438.90 571.50 L 433.70 588.40 L 433.00 594.00 L 433.90 597.10 L 439.50 604.50 L 446.50 612.30 L 453.10 618.80 L 451.20 624.70 L 448.10 630.60 L 440.00 626.50 L 432.30 622.10 L 424.20 616.70 L 420.50 613.80 L 417.50 610.90 L 415.90 608.90 L 413.60 604.20 L 412.90 601.40 L 412.10 593.40 L 412.90 582.20 L 414.10 575.30 L 417.20 562.30 L 419.20 556.90 L 422.20 552.30 L 425.70 549.30 L 428.30 548.00 Z" fill="url(#SVGID_36_)" fill-rule="nonzero" group-id="15,16,19" node-id="617" stroke="none" target-height="83.19995" target-width="41" target-x="412.1" target-y="547.4"></path><path d="M 484.30 548.00 L 480.00 547.40 L 477.90 547.70 L 475.90 548.50 L 473.70 550.70 L 472.10 554.10 L 471.40 559.40 L 471.60 563.10 L 473.60 571.50 L 478.90 588.40 L 479.50 594.00 L 478.60 597.10 L 473.00 604.50 L 466.10 612.30 L 459.50 618.80 L 461.30 624.70 L 464.40 630.60 L 472.60 626.50 L 480.30 622.10 L 488.30 616.70 L 492.10 613.80 L 495.10 610.90 L 496.60 608.90 L 498.90 604.20 L 499.70 601.40 L 500.50 593.40 L 500.40 588.90 L 499.70 582.20 L 498.50 575.30 L 495.40 562.30 L 493.40 556.90 L 490.40 552.30 L 486.80 549.30 L 484.30 548.00 Z" fill="url(#SVGID_37_)" fill-rule="nonzero" group-id="15,16,19" node-id="619" stroke="none" target-height="83.19995" target-width="41" target-x="459.5" target-y="547.4"></path><path d="M 430.90 641.10 L 482.70 641.10 L 484.40 640.80 L 485.90 639.90 L 487.10 638.50 L 488.00 636.60 L 498.40 602.20 L 498.80 600.00 L 498.50 597.90 L 497.80 595.90 L 496.60 594.40 L 494.40 593.20 L 420.90 593.00 L 419.60 593.20 L 417.50 594.40 L 416.30 595.90 L 415.50 597.80 L 415.30 599.90 L 415.60 602.10 L 425.60 636.50 L 426.40 638.40 L 427.60 639.80 L 429.20 640.80 L 430.90 641.10 Z" fill="url(#SVGID_38_)" fill-rule="nonzero" group-id="15,16,19" node-id="621" stroke="none" target-height="48.099976" target-width="83.5" target-x="415.3" target-y="593"></path><g node-id="673"><path d="M 428.80 656.90 L 427.40 654.90 L 417.90 654.10 L 409.10 652.70 L 404.30 652.80 L 401.90 653.20 L 399.80 654.00 L 398.10 655.20 L 396.20 657.90 L 395.20 661.50 L 395.50 665.40 L 396.10 667.20 L 397.20 669.00 L 398.80 670.60 L 401.00 671.90 L 402.30 672.30 L 404.30 672.50 L 416.10 672.30 L 425.00 671.40 L 429.30 669.90 L 430.50 668.80 L 430.00 663.20 L 428.80 656.90 Z" fill="#ffffff" fill-rule="nonzero" group-id="15,16,19,25" node-id="625" stroke="none" target-height="19.799988" target-width="35.299988" target-x="395.2" target-y="652.7"></path><path d="M 437.00 654.90 L 428.50 656.40 L 424.80 656.70 L 424.10 658.30 L 423.90 660.20 L 424.90 668.60 L 433.10 668.40 L 440.30 667.10 L 440.90 663.70 L 440.80 661.20 L 440.30 659.00 L 438.70 656.20 L 437.00 654.90 Z" fill="url(#SVGID_39_)" fill-rule="nonzero" group-id="15,16,19,25" node-id="627" stroke="none" target-height="13.699951" target-width="17" target-x="423.9" target-y="654.9"></path><path d="M 434.00 654.50 L 438.40 668.30 L 460.00 664.50 L 476.10 660.60 L 484.50 658.20 L 492.80 655.30 L 500.50 652.10 L 505.40 649.70 L 513.40 644.60 L 518.00 640.10 L 520.80 635.50 L 521.50 633.00 L 521.70 630.40 L 521.40 627.70 L 520.40 624.70 L 519.10 622.50 L 517.50 620.70 L 515.60 619.40 L 513.40 618.50 L 510.20 617.90 L 506.50 617.80 L 502.10 618.40 L 493.10 620.80 L 480.60 626.00 L 472.90 629.90 L 458.30 638.20 L 445.90 646.20 L 434.00 654.50 Z" fill="url(#SVGID_40_)" fill-rule="nonzero" group-id="15,16,19,25" node-id="629" stroke="none" target-height="50.5" target-width="87.70001" target-x="434" target-y="617.8"></path><path d="M 427.70 655.60 L 429.40 656.80 L 430.40 658.00 L 431.20 659.60 L 431.70 661.80 L 431.70 664.20 L 431.30 666.10 L 430.00 668.30 L 428.80 669.20 L 425.60 670.50 L 423.20 670.90 L 417.30 671.40 L 405.40 671.60 L 401.60 670.80 L 399.90 669.80 L 398.40 668.30 L 397.10 665.40 L 396.70 663.30 L 396.70 661.00 L 397.10 659.20 L 397.70 657.70 L 398.70 656.50 L 400.50 655.20 L 402.60 654.20 L 405.30 653.70 L 408.00 653.60 L 417.60 654.80 L 427.70 655.60 Z" fill="url(#SVGID_41_)" fill-rule="nonzero" group-id="15,16,19,25" node-id="631" stroke="none" target-height="18" target-width="35" target-x="396.7" target-y="653.6"></path></g><g node-id="674"><path d="M 488.50 656.90 L 489.90 654.90 L 499.40 654.10 L 508.00 652.70 L 512.70 652.70 L 515.00 653.10 L 517.10 653.90 L 519.00 655.10 L 521.10 657.90 L 522.00 661.50 L 521.70 665.40 L 520.00 668.90 L 518.70 670.50 L 516.40 671.80 L 515.10 672.20 L 510.70 672.60 L 507.20 672.50 L 495.10 671.80 L 492.30 671.40 L 488.00 669.90 L 486.80 668.80 L 487.30 663.20 L 488.50 656.90 Z" fill="#ffffff" fill-rule="nonzero" group-id="15,16,19,26" node-id="636" stroke="none" target-height="19.899963" target-width="35.200012" target-x="486.8" target-y="652.7"></path><path d="M 480.30 654.90 L 488.80 656.40 L 492.50 656.70 L 493.30 658.30 L 493.40 660.20 L 492.40 668.60 L 484.20 668.40 L 477.00 667.10 L 476.40 663.70 L 476.50 661.20 L 477.00 659.00 L 478.60 656.20 L 480.30 654.90 Z" fill="url(#SVGID_42_)" fill-rule="nonzero" group-id="15,16,19,26" node-id="638" stroke="none" target-height="13.699951" target-width="17" target-x="476.4" target-y="654.9"></path><path d="M 483.30 654.50 L 478.90 668.30 L 457.30 664.50 L 441.20 660.60 L 432.80 658.20 L 424.50 655.30 L 416.80 652.10 L 411.90 649.70 L 404.00 644.60 L 399.30 640.10 L 396.50 635.50 L 395.80 633.00 L 395.60 630.40 L 395.90 627.70 L 396.90 624.70 L 398.20 622.50 L 399.80 620.70 L 401.70 619.40 L 403.90 618.50 L 407.10 617.90 L 410.90 617.80 L 415.20 618.40 L 424.20 620.80 L 436.70 626.00 L 444.40 629.90 L 459.00 638.20 L 471.40 646.20 L 483.30 654.50 Z" fill="url(#SVGID_43_)" fill-rule="nonzero" group-id="15,16,19,26" node-id="640" stroke="none" target-height="50.5" target-width="87.69998" target-x="395.6" target-y="617.8"></path><path d="M 489.60 655.60 L 487.90 656.80 L 486.90 658.00 L 486.10 659.60 L 485.70 661.80 L 485.60 664.20 L 486.00 666.10 L 487.40 668.30 L 488.50 669.20 L 491.70 670.50 L 494.10 670.90 L 500.00 671.40 L 511.90 671.60 L 515.70 670.80 L 517.40 669.80 L 518.90 668.30 L 520.20 665.40 L 520.60 663.30 L 520.60 661.00 L 520.20 659.20 L 518.60 656.50 L 516.80 655.20 L 514.70 654.20 L 512.00 653.70 L 509.30 653.60 L 499.70 654.80 L 489.60 655.60 Z" fill="url(#SVGID_44_)" fill-rule="nonzero" group-id="15,16,19,26" node-id="642" stroke="none" target-height="18" target-width="34.99997" target-x="485.6" target-y="653.6"></path></g><path d="M 473.10 527.90 L 473.70 526.10 L 473.60 524.40 L 472.40 524.10 L 471.30 524.70 L 471.20 518.20 L 470.50 513.00 L 468.50 509.80 L 465.30 507.50 L 460.70 506.20 L 457.40 506.00 L 452.90 506.50 L 449.10 508.30 L 447.60 509.60 L 445.80 512.10 L 445.20 514.80 L 444.90 524.70 L 443.90 524.10 L 443.30 524.10 L 442.70 524.40 L 442.50 525.00 L 442.80 527.10 L 443.80 529.70 L 444.20 533.90 L 445.10 534.90 L 446.20 535.00 L 447.90 539.00 L 449.10 540.90 L 451.30 543.30 L 453.70 545.10 L 456.80 546.50 L 459.60 546.50 L 462.80 545.00 L 465.10 543.20 L 467.20 540.80 L 468.80 538.10 L 470.00 535.00 L 471.10 534.90 L 471.70 534.50 L 472.40 529.70 L 473.10 527.90 Z" fill="url(#SVGID_45_)" fill-rule="nonzero" group-id="15,16,19" node-id="645" stroke="none" target-height="40.5" target-width="31.200012" target-x="442.5" target-y="506"></path><path d="M 464.70 503.80 L 462.80 500.90 L 459.80 499.20 L 457.90 498.90 L 455.20 499.10 L 451.70 500.10 L 449.60 501.10 L 445.40 504.00 L 442.50 504.60 L 441.00 505.30 L 439.80 506.30 L 438.80 507.70 L 438.30 509.30 L 438.20 511.20 L 438.60 513.00 L 439.60 515.10 L 442.60 519.00 L 443.00 520.00 L 442.90 523.10 L 444.20 526.40 L 444.70 529.60 L 445.70 525.30 L 446.10 521.70 L 445.50 517.80 L 446.10 517.30 L 448.80 516.70 L 455.30 516.90 L 460.50 516.00 L 463.90 514.40 L 465.10 512.60 L 465.80 515.50 L 467.20 518.70 L 470.00 521.20 L 470.50 522.30 L 471.30 529.20 L 471.90 524.60 L 473.60 519.80 L 474.30 516.20 L 474.40 512.60 L 474.10 511.00 L 472.90 509.20 L 471.50 505.50 L 470.70 504.40 L 468.30 503.40 L 464.70 503.80 Z" fill="url(#SVGID_46_)" fill-rule="nonzero" group-id="15,16,19" node-id="647" stroke="none" target-height="30.699982" target-width="36.19998" target-x="438.2" target-y="498.9"></path></g></g></g></svg>